{"title":"Stake.Land.2010.DvDScr.XviD.Feel-Free","uid":6437593,"size":870454552,"categoryP":"video","categoryS":"movies","magnet":"?xt=urn:btih:82eadb3cef46de269928ec84de2dc5fca37ef99a&amp;dn=Stake.Land.2010.DvDScr.XviD.Feel-Free&amp;tr=udp%3A%2F%2Ftracker.openbittorrent.com%3A80&amp;tr=udp%3A%2F%2Fopen.demonii.com%3A1337&amp;tr=udp%3A%2F%2Ftracker.coppersurfer.tk%3A6969&amp;tr=udp%3A%2F%2Fexodus.desync.com%3A6969","seeders":0,"leechers":1,"uploader":"qwersd","files":-1,"time":1306803437,"description":"Genre:Horror\nLanguage:English\nIMDb: &lt;a href=&quot; http://www.imdb.com/title/tt1464580/&quot; rel=&quot;nofollow&quot; target=&quot;_NEW&quot;&gt; http://www.imdb.com/title/tt1464580/&lt;/a&gt;\nSource:DVDSCR Thanks!\n\nFormat : AVI\nFormat/Info : Audio Video Interleave\nFile size : 829 MiB\nDuration : 1h 38mn\nOverall bit rate : 1 173 Kbps\n\nVideo\nID : 0\nFormat : MPEG-4 Visual\nFormat profile : Advanced Simple@L5\nFormat settings, BVOP : Yes\nFormat settings, QPel : No\nFormat settings, GMC : No warppoints\nFormat settings, Matrix : Default (H.263)\nCodec ID : XVID\nCodec ID/Hint : XviD\nDuration : 1h 38mn\nBit rate : 971 Kbps\nWidth : 640 pixels\nHeight : 272 pixels\nDisplay aspect ratio : 2.35:1\nFrame rate : 23.976 fps\nColor space : YUV\nChroma subsampling : 4:2:0\nBit depth : 8 bits\nScan type : Progressive\nBits/(Pixel*Frame) : 0.233\nStream size : 687 MiB (83%)\nWriting library : XviD 1.2.1 (UTC 2008-12-04)\n\nAudio\nID : 1\nFormat : AC-3\nFormat/Info : Audio Coding 3\nMode extension : CM (complete main)\nCodec ID : 2000\nDuration : 1h 38mn\nBit rate mode : Constant\nBit rate : 192 Kbps\nChannel(s) : 2 channels\nChannel positions : Front: L R\nSampling rate : 48.0 KHz\nBit depth : 16 bits\nStream size : 136 MiB (16%)\nAlignment : Aligned on interleaves\nInterleave, duration : 42 ms (1.00 video frame)\nInterleave, preload duration : 512 ms\n\n\nPlot:\nMartin was a normal teenage boy before the country collapsed in an empty pit of economic and political disaster..\n\nScreens:\n &lt;a href=&quot;\nhttp://www.pix2links.com/images/78380892500388260435.png&quot; rel=&quot;nofollow&quot; target=&quot;_NEW&quot;&gt;\nhttp://www.pix2links.com/images/78380892500388260435.png&lt;/a&gt; &lt;a href=&quot;\nhttp://www.pix2links.com/images/39638605664857797827.png&quot; rel=&quot;nofollow&quot; target=&quot;_NEW&quot;&gt;\nhttp://www.pix2links.com/images/39638605664857797827.png&lt;/a&gt; &lt;a href=&quot;\nhttp://www.pix2links.com/images/88447078716368972219.png&quot; rel=&quot;nofollow&quot; target=&quot;_NEW&quot;&gt;\nhttp://www.pix2links.com/images/88447078716368972219.png&lt;/a&gt; &lt;a href=&quot;\nhttp://www.pix2links.com/images/77767800274665535170.png&quot; rel=&quot;nofollow&quot; target=&quot;_NEW&quot;&gt;\nhttp://www.pix2links.com/images/77767800274665535170.png&lt;/a&gt; &lt;a href=&quot;\nhttp://www.pix2links.com/images/85839492114021519999.png&quot; rel=&quot;nofollow&quot; target=&quot;_NEW&quot;&gt;\nhttp://www.pix2links.com/images/85839492114021519999.png&lt;/a&gt;\n\nGreets:\n\nINK,CRYS,IMAGINE,LKRG,FXG,3Li,FLAWL3SS,TA,iLLUSiON,ViSiON,DTRG SAFCuk009,LU,TheFalcon007,MYSTiC,PrisM,Noir,WBZ,LAP,Rx,Kingdom,SAFCuk009+Fabreezy,HDLiTE,TWiZTED,ExtraTorrentRG.ELEKTRI4KA,MAGNAT,CM8\nAnd to all the other p2p grps past and present.","torrent":{"xt":"urn:btih:82eadb3cef46de269928ec84de2dc5fca37ef99a","amp;dn":"Stake.Land.2010.DvDScr.XviD.Feel-Free","amp;tr":["udp%3A%2F%2Ftracker.openbittorrent.com%3A80","udp%3A%2F%2Fopen.demonii.com%3A1337","udp%3A%2F%2Ftracker.coppersurfer.tk%3A6969","udp%3A%2F%2Fexodus.desync.com%3A6969"],"infoHash":"82eadb3cef46de269928ec84de2dc5fca37ef99a","infoHashBuffer":{"type":"Buffer","data":[130,234,219,60,239,70,222,38,153,40,236,132,222,45,197,252,163,126,249,154]},"announce":[],"urlList":[]}}